<svg xmlns="http://www.w3.org/2000/svg" viewBox="0 0 512 180">
  <!-- Cabeza del Puma -->
  <g fill="#2E4C8C">
    <path d="M45,60 C30,60 20,70 20,85 C20,95 25,105 35,110 L30,120 C25,125 22,132 22,140 C22,155 32,165 47,165 C52,165 57,163 61,160 L65,155 L69,160 C73,163 78,165 83,165 C98,165 108,155 108,140 C108,132 105,125 100,120 L95,110 C105,105 110,95 110,85 C110,70 100,60 85,60 C75,60 67,65 62,72 L65,80 C67,75 72,72 78,72 C88,72 95,79 95,89 C95,99 88,106 78,106 C73,106 69,104 66,100 L60,93 L54,100 C51,104 47,106 42,106 C32,106 25,99 25,89 C25,79 32,72 42,72 C48,72 53,75 55,80 L58,72 C53,65 45,60 45,60 Z"/>
    <ellipse cx="48" cy="88" rx="4" ry="6"/>
    <ellipse cx="82" cy="88" rx="4" ry="6"/>
    <path d="M55,95 Q65,100 75,95" stroke="#2E4C8C" stroke-width="2" fill="none"/>
  </g>
  
  <!-- Texto PUMA -->
  <g fill="#2E4C8C">
    <text x="140" y="80" font-family="Arial, sans-serif" font-size="48" font-weight="bold">PUMA</text>
    <text x="140" y="110" font-family="Arial, sans-serif" font-size="14" fill="#F47920">INGENIERIA Y CONSTRUCCION</text>
  </g>
</svg>
